<svg id="visual" viewBox="0 0 960 540" width="960" height="540" xmlns="http://www.w3.org/2000/svg" xmlns:xlink="http://www.w3.org/1999/xlink" version="1.1"><rect x="0" y="0" width="960" height="540" fill="#000"></rect><path d="M0 447L7.7 450.7C15.3 454.3 30.7 461.7 45.8 464.5C61 467.3 76 465.7 91.2 462.2C106.3 458.7 121.7 453.3 137 454.7C152.3 456 167.7 464 183 467.3C198.3 470.7 213.7 469.3 228.8 467.2C244 465 259 462 274.2 462.8C289.3 463.7 304.7 468.3 320 469.3C335.3 470.3 350.7 467.7 365.8 466.8C381 466 396 467 411.2 464C426.3 461 441.7 454 457 455.2C472.3 456.3 487.7 465.7 503 466.2C518.3 466.7 533.7 458.3 548.8 455.2C564 452 579 454 594.2 454.5C609.3 455 624.7 454 640 453.2C655.3 452.3 670.7 451.7 685.8 450.8C701 450 716 449 731.2 451.8C746.3 454.7 761.7 461.3 777 462C792.3 462.7 807.7 457.3 823 457.5C838.3 457.7 853.7 463.3 868.8 465.7C884 468 899 467 914.2 464.7C929.3 462.3 944.7 458.7 952.3 456.8L960 455L960 541L952.3 541C944.7 541 929.3 541 914.2 541C899 541 884 541 868.8 541C853.7 541 838.3 541 823 541C807.7 541 792.3 541 777 541C761.7 541 746.3 541 731.2 541C716 541 701 541 685.8 541C670.7 541 655.3 541 640 541C624.7 541 609.3 541 594.2 541C579 541 564 541 548.8 541C533.7 541 518.3 541 503 541C487.7 541 472.3 541 457 541C441.7 541 426.3 541 411.2 541C396 541 381 541 365.8 541C350.7 541 335.3 541 320 541C304.7 541 289.3 541 274.2 541C259 541 244 541 228.8 541C213.7 541 198.3 541 183 541C167.7 541 152.3 541 137 541C121.7 541 106.3 541 91.2 541C76 541 61 541 45.8 541C30.7 541 15.3 541 7.7 541L0 541Z" fill="#03dac5"></path><path d="M0 478L7.7 477.3C15.3 476.7 30.7 475.3 45.8 472.7C61 470 76 466 91.2 464.2C106.3 462.3 121.7 462.7 137 465C152.3 467.3 167.7 471.7 183 474.2C198.3 476.7 213.7 477.3 228.8 478.2C244 479 259 480 274.2 479.2C289.3 478.3 304.7 475.7 320 471.5C335.3 467.3 350.7 461.7 365.8 461.2C381 460.7 396 465.3 411.2 468.2C426.3 471 441.7 472 457 472.2C472.3 472.3 487.7 471.7 503 469.3C518.3 467 533.7 463 548.8 465.2C564 467.3 579 475.7 594.2 479.2C609.3 482.7 624.7 481.3 640 477.8C655.3 474.3 670.7 468.7 685.8 465.5C701 462.3 716 461.7 731.2 464C746.3 466.3 761.7 471.7 777 473.3C792.3 475 807.7 473 823 471C838.3 469 853.7 467 868.8 468.7C884 470.3 899 475.7 914.2 474.5C929.3 473.3 944.7 465.7 952.3 461.8L960 458L960 541L952.3 541C944.7 541 929.3 541 914.2 541C899 541 884 541 868.8 541C853.7 541 838.3 541 823 541C807.7 541 792.3 541 777 541C761.7 541 746.3 541 731.2 541C716 541 701 541 685.8 541C670.7 541 655.3 541 640 541C624.7 541 609.3 541 594.2 541C579 541 564 541 548.8 541C533.7 541 518.3 541 503 541C487.7 541 472.3 541 457 541C441.7 541 426.3 541 411.2 541C396 541 381 541 365.8 541C350.7 541 335.3 541 320 541C304.7 541 289.3 541 274.2 541C259 541 244 541 228.8 541C213.7 541 198.3 541 183 541C167.7 541 152.3 541 137 541C121.7 541 106.3 541 91.2 541C76 541 61 541 45.8 541C30.7 541 15.3 541 7.7 541L0 541Z" fill="#00cfd6"></path><path d="M0 486L7.7 483C15.3 480 30.7 474 45.8 471.2C61 468.3 76 468.7 91.2 468.5C106.3 468.3 121.7 467.7 137 467.2C152.3 466.7 167.7 466.3 183 467.7C198.3 469 213.7 472 228.8 475.7C244 479.3 259 483.7 274.2 484.7C289.3 485.7 304.7 483.3 320 483.3C335.3 483.3 350.7 485.7 365.8 485.3C381 485 396 482 411.2 481.7C426.3 481.3 441.7 483.7 457 485.2C472.3 486.7 487.7 487.3 503 483.8C518.3 480.3 533.7 472.7 548.8 468.7C564 464.7 579 464.3 594.2 464.3C609.3 464.3 624.7 464.7 640 467.2C655.3 469.7 670.7 474.3 685.8 475.8C701 477.3 716 475.7 731.2 475.3C746.3 475 761.7 476 777 474.3C792.3 472.7 807.7 468.3 823 466.2C838.3 464 853.7 464 868.8 465.5C884 467 899 470 914.2 473.5C929.3 477 944.7 481 952.3 483L960 485L960 541L952.3 541C944.7 541 929.3 541 914.2 541C899 541 884 541 868.8 541C853.7 541 838.3 541 823 541C807.7 541 792.3 541 777 541C761.7 541 746.3 541 731.2 541C716 541 701 541 685.8 541C670.7 541 655.3 541 640 541C624.7 541 609.3 541 594.2 541C579 541 564 541 548.8 541C533.7 541 518.3 541 503 541C487.7 541 472.3 541 457 541C441.7 541 426.3 541 411.2 541C396 541 381 541 365.8 541C350.7 541 335.3 541 320 541C304.7 541 289.3 541 274.2 541C259 541 244 541 228.8 541C213.7 541 198.3 541 183 541C167.7 541 152.3 541 137 541C121.7 541 106.3 541 91.2 541C76 541 61 541 45.8 541C30.7 541 15.3 541 7.7 541L0 541Z" fill="#00c1e6"></path><path d="M0 486L7.7 486.5C15.3 487 30.7 488 45.8 487.2C61 486.3 76 483.7 91.2 483.8C106.3 484 121.7 487 137 487.5C152.3 488 167.7 486 183 486.8C198.3 487.7 213.7 491.3 228.8 491C244 490.7 259 486.3 274.2 483.3C289.3 480.3 304.7 478.7 320 480.5C335.3 482.3 350.7 487.7 365.8 490.7C381 493.7 396 494.3 411.2 492.5C426.3 490.7 441.7 486.3 457 483C472.3 479.7 487.7 477.3 503 477.3C518.3 477.3 533.7 479.7 548.8 479.7C564 479.7 579 477.3 594.2 478.3C609.3 479.3 624.7 483.7 640 483.5C655.3 483.3 670.7 478.7 685.8 476C701 473.3 716 472.7 731.2 474C746.3 475.3 761.7 478.7 777 481.8C792.3 485 807.7 488 823 489C838.3 490 853.7 489 868.8 488.3C884 487.7 899 487.3 914.2 484.5C929.3 481.7 944.7 476.3 952.3 473.7L960 471L960 541L952.3 541C944.7 541 929.3 541 914.2 541C899 541 884 541 868.8 541C853.7 541 838.3 541 823 541C807.7 541 792.3 541 777 541C761.7 541 746.3 541 731.2 541C716 541 701 541 685.8 541C670.7 541 655.3 541 640 541C624.7 541 609.3 541 594.2 541C579 541 564 541 548.8 541C533.7 541 518.3 541 503 541C487.7 541 472.3 541 457 541C441.7 541 426.3 541 411.2 541C396 541 381 541 365.8 541C350.7 541 335.3 541 320 541C304.7 541 289.3 541 274.2 541C259 541 244 541 228.8 541C213.7 541 198.3 541 183 541C167.7 541 152.3 541 137 541C121.7 541 106.3 541 91.2 541C76 541 61 541 45.8 541C30.7 541 15.3 541 7.7 541L0 541Z" fill="#00b2f1"></path><path d="M0 500L7.7 498C15.3 496 30.7 492 45.8 490.5C61 489 76 490 91.2 491.3C106.3 492.7 121.7 494.3 137 492.3C152.3 490.3 167.7 484.7 183 485.3C198.3 486 213.7 493 228.8 495.8C244 498.7 259 497.3 274.2 496.2C289.3 495 304.7 494 320 494.2C335.3 494.3 350.7 495.7 365.8 494.2C381 492.7 396 488.3 411.2 488.3C426.3 488.3 441.7 492.7 457 494.8C472.3 497 487.7 497 503 496.2C518.3 495.3 533.7 493.7 548.8 493C564 492.3 579 492.7 594.2 493.7C609.3 494.7 624.7 496.3 640 497.5C655.3 498.7 670.7 499.3 685.8 499.5C701 499.7 716 499.3 731.2 495.8C746.3 492.3 761.7 485.7 777 484C792.3 482.3 807.7 485.7 823 486C838.3 486.3 853.7 483.7 868.8 484.7C884 485.7 899 490.3 914.2 492.3C929.3 494.3 944.7 493.7 952.3 493.3L960 493L960 541L952.3 541C944.7 541 929.3 541 914.2 541C899 541 884 541 868.8 541C853.7 541 838.3 541 823 541C807.7 541 792.3 541 777 541C761.7 541 746.3 541 731.2 541C716 541 701 541 685.8 541C670.7 541 655.3 541 640 541C624.7 541 609.3 541 594.2 541C579 541 564 541 548.8 541C533.7 541 518.3 541 503 541C487.7 541 472.3 541 457 541C441.7 541 426.3 541 411.2 541C396 541 381 541 365.8 541C350.7 541 335.3 541 320 541C304.7 541 289.3 541 274.2 541C259 541 244 541 228.8 541C213.7 541 198.3 541 183 541C167.7 541 152.3 541 137 541C121.7 541 106.3 541 91.2 541C76 541 61 541 45.8 541C30.7 541 15.3 541 7.7 541L0 541Z" fill="#00a1f4"></path><path d="M0 493L7.7 494.3C15.3 495.7 30.7 498.3 45.8 500C61 501.7 76 502.3 91.2 501.2C106.3 500 121.7 497 137 497.5C152.3 498 167.7 502 183 501.2C198.3 500.3 213.7 494.7 228.8 492.2C244 489.7 259 490.3 274.2 490.8C289.3 491.3 304.7 491.7 320 494.2C335.3 496.7 350.7 501.3 365.8 502.3C381 503.3 396 500.7 411.2 498.8C426.3 497 441.7 496 457 494.7C472.3 493.3 487.7 491.7 503 492C518.3 492.3 533.7 494.7 548.8 494.7C564 494.7 579 492.3 594.2 492.7C609.3 493 624.7 496 640 495.8C655.3 495.7 670.7 492.3 685.8 490.8C701 489.3 716 489.7 731.2 491.8C746.3 494 761.7 498 777 500.5C792.3 503 807.7 504 823 503.3C838.3 502.7 853.7 500.3 868.8 498.7C884 497 899 496 914.2 495.7C929.3 495.3 944.7 495.7 952.3 495.8L960 496L960 541L952.3 541C944.7 541 929.3 541 914.2 541C899 541 884 541 868.8 541C853.7 541 838.3 541 823 541C807.7 541 792.3 541 777 541C761.7 541 746.3 541 731.2 541C716 541 701 541 685.8 541C670.7 541 655.3 541 640 541C624.7 541 609.3 541 594.2 541C579 541 564 541 548.8 541C533.7 541 518.3 541 503 541C487.7 541 472.3 541 457 541C441.7 541 426.3 541 411.2 541C396 541 381 541 365.8 541C350.7 541 335.3 541 320 541C304.7 541 289.3 541 274.2 541C259 541 244 541 228.8 541C213.7 541 198.3 541 183 541C167.7 541 152.3 541 137 541C121.7 541 106.3 541 91.2 541C76 541 61 541 45.8 541C30.7 541 15.3 541 7.7 541L0 541Z" fill="#008eee"></path><path d="M0 509L7.7 506.8C15.3 504.7 30.7 500.3 45.8 500C61 499.7 76 503.3 91.2 503.3C106.3 503.3 121.7 499.7 137 500C152.3 500.3 167.7 504.7 183 506.5C198.3 508.3 213.7 507.7 228.8 507C244 506.3 259 505.7 274.2 506.2C289.3 506.7 304.7 508.3 320 507.8C335.3 507.3 350.7 504.7 365.8 504.7C381 504.7 396 507.3 411.2 508C426.3 508.7 441.7 507.3 457 507.2C472.3 507 487.7 508 503 508.2C518.3 508.3 533.7 507.7 548.8 505.3C564 503 579 499 594.2 499C609.3 499 624.7 503 640 504.2C655.3 505.3 670.7 503.7 685.8 501.7C701 499.7 716 497.3 731.2 496.2C746.3 495 761.7 495 777 496.3C792.3 497.7 807.7 500.3 823 500.2C838.3 500 853.7 497 868.8 495.8C884 494.7 899 495.3 914.2 497.7C929.3 500 944.7 504 952.3 506L960 508L960 541L952.3 541C944.7 541 929.3 541 914.2 541C899 541 884 541 868.8 541C853.7 541 838.3 541 823 541C807.7 541 792.3 541 777 541C761.7 541 746.3 541 731.2 541C716 541 701 541 685.8 541C670.7 541 655.3 541 640 541C624.7 541 609.3 541 594.2 541C579 541 564 541 548.8 541C533.7 541 518.3 541 503 541C487.7 541 472.3 541 457 541C441.7 541 426.3 541 411.2 541C396 541 381 541 365.8 541C350.7 541 335.3 541 320 541C304.7 541 289.3 541 274.2 541C259 541 244 541 228.8 541C213.7 541 198.3 541 183 541C167.7 541 152.3 541 137 541C121.7 541 106.3 541 91.2 541C76 541 61 541 45.8 541C30.7 541 15.3 541 7.7 541L0 541Z" fill="#0079e8"></path><path d="M0 512L7.7 511.8C15.3 511.7 30.7 511.3 45.8 511.7C61 512 76 513 91.2 513.2C106.3 513.3 121.7 512.7 137 510.7C152.3 508.7 167.7 505.3 183 505.7C198.3 506 213.7 510 228.8 510.5C244 511 259 508 274.2 507C289.3 506 304.7 507 320 507.7C335.3 508.3 350.7 508.7 365.8 510C381 511.3 396 513.7 411.2 515C426.3 516.3 441.7 516.7 457 516.2C472.3 515.7 487.7 514.3 503 514.2C518.3 514 533.7 515 548.8 514.2C564 513.3 579 510.7 594.2 510.2C609.3 509.7 624.7 511.3 640 512C655.3 512.7 670.7 512.3 685.8 511.5C701 510.7 716 509.3 731.2 509.8C746.3 510.3 761.7 512.7 777 513C792.3 513.3 807.7 511.7 823 510.7C838.3 509.7 853.7 509.3 868.8 509.3C884 509.3 899 509.7 914.2 508.5C929.3 507.3 944.7 504.7 952.3 503.3L960 502L960 541L952.3 541C944.7 541 929.3 541 914.2 541C899 541 884 541 868.8 541C853.7 541 838.3 541 823 541C807.7 541 792.3 541 777 541C761.7 541 746.3 541 731.2 541C716 541 701 541 685.8 541C670.7 541 655.3 541 640 541C624.7 541 609.3 541 594.2 541C579 541 564 541 548.8 541C533.7 541 518.3 541 503 541C487.7 541 472.3 541 457 541C441.7 541 426.3 541 411.2 541C396 541 381 541 365.8 541C350.7 541 335.3 541 320 541C304.7 541 289.3 541 274.2 541C259 541 244 541 228.8 541C213.7 541 198.3 541 183 541C167.7 541 152.3 541 137 541C121.7 541 106.3 541 91.2 541C76 541 61 541 45.8 541C30.7 541 15.3 541 7.7 541L0 541Z" fill="#0064df"></path><path d="M0 523L7.7 521.5C15.3 520 30.7 517 45.8 515C61 513 76 512 91.2 512.2C106.3 512.3 121.7 513.7 137 515C152.3 516.3 167.7 517.7 183 518.2C198.3 518.7 213.7 518.3 228.8 519C244 519.7 259 521.3 274.2 520.8C289.3 520.3 304.7 517.7 320 515.7C335.3 513.7 350.7 512.3 365.8 512.8C381 513.3 396 515.7 411.2 516C426.3 516.3 441.7 514.7 457 514.8C472.3 515 487.7 517 503 518.7C518.3 520.3 533.7 521.7 548.8 521.5C564 521.3 579 519.7 594.2 518.7C609.3 517.7 624.7 517.3 640 516.7C655.3 516 670.7 515 685.8 514C701 513 716 512 731.2 513.5C746.3 515 761.7 519 777 518.8C792.3 518.7 807.7 514.3 823 512.5C838.3 510.7 853.7 511.3 868.8 513.3C884 515.3 899 518.7 914.2 518.7C929.3 518.7 944.7 515.3 952.3 513.7L960 512L960 541L952.3 541C944.7 541 929.3 541 914.2 541C899 541 884 541 868.8 541C853.7 541 838.3 541 823 541C807.7 541 792.3 541 777 541C761.7 541 746.3 541 731.2 541C716 541 701 541 685.8 541C670.7 541 655.3 541 640 541C624.7 541 609.3 541 594.2 541C579 541 564 541 548.8 541C533.7 541 518.3 541 503 541C487.7 541 472.3 541 457 541C441.7 541 426.3 541 411.2 541C396 541 381 541 365.8 541C350.7 541 335.3 541 320 541C304.7 541 289.3 541 274.2 541C259 541 244 541 228.8 541C213.7 541 198.3 541 183 541C167.7 541 152.3 541 137 541C121.7 541 106.3 541 91.2 541C76 541 61 541 45.8 541C30.7 541 15.3 541 7.7 541L0 541Z" fill="#004cd4"></path><path d="M0 518L7.7 518.5C15.3 519 30.7 520 45.8 520.2C61 520.3 76 519.7 91.2 520.5C106.3 521.3 121.7 523.7 137 523.7C152.3 523.7 167.7 521.3 183 521.5C198.3 521.7 213.7 524.3 228.8 525C244 525.7 259 524.3 274.2 523.3C289.3 522.3 304.7 521.7 320 521.3C335.3 521 350.7 521 365.8 520.7C381 520.3 396 519.7 411.2 520.7C426.3 521.7 441.7 524.3 457 524.3C472.3 524.3 487.7 521.7 503 521C518.3 520.3 533.7 521.7 548.8 522.7C564 523.7 579 524.3 594.2 524.8C609.3 525.3 624.7 525.7 640 525.5C655.3 525.3 670.7 524.7 685.8 524.7C701 524.7 716 525.3 731.2 524.8C746.3 524.3 761.7 522.7 777 522.7C792.3 522.7 807.7 524.3 823 524.5C838.3 524.7 853.7 523.3 868.8 523.5C884 523.7 899 525.3 914.2 526.2C929.3 527 944.7 527 952.3 527L960 527L960 541L952.3 541C944.7 541 929.3 541 914.2 541C899 541 884 541 868.8 541C853.7 541 838.3 541 823 541C807.7 541 792.3 541 777 541C761.7 541 746.3 541 731.2 541C716 541 701 541 685.8 541C670.7 541 655.3 541 640 541C624.7 541 609.3 541 594.2 541C579 541 564 541 548.8 541C533.7 541 518.3 541 503 541C487.7 541 472.3 541 457 541C441.7 541 426.3 541 411.2 541C396 541 381 541 365.8 541C350.7 541 335.3 541 320 541C304.7 541 289.3 541 274.2 541C259 541 244 541 228.8 541C213.7 541 198.3 541 183 541C167.7 541 152.3 541 137 541C121.7 541 106.3 541 91.2 541C76 541 61 541 45.8 541C30.7 541 15.3 541 7.7 541L0 541Z" fill="#1b31c5"></path><path d="M0 530L7.7 530C15.3 530 30.7 530 45.8 530.2C61 530.3 76 530.7 91.2 530.3C106.3 530 121.7 529 137 529.2C152.3 529.3 167.7 530.7 183 530.7C198.3 530.7 213.7 529.3 228.8 529.5C244 529.7 259 531.3 274.2 531.5C289.3 531.7 304.7 530.3 320 529.3C335.3 528.3 350.7 527.7 365.8 527.5C381 527.3 396 527.7 411.2 528C426.3 528.3 441.7 528.7 457 528.3C472.3 528 487.7 527 503 527C518.3 527 533.7 528 548.8 528.8C564 529.7 579 530.3 594.2 530.5C609.3 530.7 624.7 530.3 640 530.3C655.3 530.3 670.7 530.7 685.8 530.7C701 530.7 716 530.3 731.2 529.7C746.3 529 761.7 528 777 528.2C792.3 528.3 807.7 529.7 823 530.5C838.3 531.3 853.7 531.7 868.8 531.5C884 531.3 899 530.7 914.2 529.8C929.3 529 944.7 528 952.3 527.5L960 527L960 541L952.3 541C944.7 541 929.3 541 914.2 541C899 541 884 541 868.8 541C853.7 541 838.3 541 823 541C807.7 541 792.3 541 777 541C761.7 541 746.3 541 731.2 541C716 541 701 541 685.8 541C670.7 541 655.3 541 640 541C624.7 541 609.3 541 594.2 541C579 541 564 541 548.8 541C533.7 541 518.3 541 503 541C487.7 541 472.3 541 457 541C441.7 541 426.3 541 411.2 541C396 541 381 541 365.8 541C350.7 541 335.3 541 320 541C304.7 541 289.3 541 274.2 541C259 541 244 541 228.8 541C213.7 541 198.3 541 183 541C167.7 541 152.3 541 137 541C121.7 541 106.3 541 91.2 541C76 541 61 541 45.8 541C30.7 541 15.3 541 7.7 541L0 541Z" fill="#3700b3"></path></svg>